<svg xmlns="http://www.w3.org/2000/svg" width="1836" height="1407" viewBox="0 0 1836 1407">
  <defs>
    <style>
      .cls-1 {
        stroke: #000;
        stroke-width: 1px;
        fill-rule: evenodd;
      }
    </style>
  </defs>
  <path class="cls-1" d="M360.906,58.31C400.657,46.383,469.559,5.964,894.9,0,1322.22,3.976,1487.85,80.176,1636.91,117.945c139.13,49.7,175.57,124.571,189.48,152.4,17.89,107.343,5.3,237.878,5.3,227.939-7.95,228.6-105.34,434.672-151.05,530.086-111.3,226.62-235.86,292.21-267.66,310.1-129.19,77.53-314.03,63.62-337.88,67.59-669.8,5.96-675.768-61.62-783.1-75.54S93.249,1215.89,89.274,1209.93C37.6,1130.41,38.923,1084.69,27,1050.9c-55.651-504.908-7.95-648.7-7.95-674.537,29.813-141.136,80.165-172.279,94.078-188.181C180.7,96.741,321.155,70.237,360.906,58.31Z"/>
</svg>
